<svg xmlns="http://www.w3.org/2000/svg" viewBox="0 0 100 100" role="img" aria-label="Karst">
  <circle cx="50" cy="50" r="47" fill="#0f766e"/>
  <circle cx="50" cy="50" r="47" fill="none" stroke="#c2700c" stroke-width="3.5"/>
  <g transform="translate(5.75 25.11) scale(0.0886)" fill="#ffffff"><path d="M 217.500 61.654 C 195.235 63.425, 186.092 64.504, 171.500 67.083 C 134.720 73.582, 129 75.190, 129 79.026 C 129 80.481, 128.322 81, 126.421 81 C 118.138 81, 72.908 105.914, 54.997 120.343 C 49.368 124.878, 48.459 126.073, 48.190 129.288 L 47.879 133 53.875 133 C 57.172 133, 61.049 132.552, 62.491 132.003 C 64.485 131.245, 65.877 131.405, 68.306 132.672 C 71.735 134.460, 82.493 135.061, 87.250 133.731 C 89.566 133.083, 90 133.267, 90 134.892 C 90 137.433, 93.628 140.379, 104.915 147.005 C 127.273 160.128, 143.660 177.155, 148.925 192.731 L 151.500 200.350 162 202.139 C 176.496 204.609, 177 204.581, 177 201.300 C 177 199.200, 177.267 198.867, 178.200 199.800 C 180.248 201.848, 183.724 201.146, 185.885 198.250 C 187.013 196.738, 187.951 196.063, 187.968 196.750 C 187.986 197.438, 188.654 198, 189.453 198 C 190.609 198, 190.785 199.023, 190.314 203 C 189.735 207.887, 189.781 208, 192.361 208 C 193.843 208, 195 208.563, 195 209.284 C 195 211.054, 200.250 214, 203.404 214 C 206.255 214, 206.890 211.532, 204.965 207.934 C 204.242 206.583, 204.252 206, 204.997 206 C 205.584 206, 206.471 204.988, 206.969 203.750 C 207.466 202.512, 207.902 202.063, 207.937 202.750 C 208.155 207.049, 218.995 200.568, 219.008 196.131 C 219.013 194.307, 219.780 193.145, 221.508 192.344 C 223.783 191.289, 224 191.392, 224 193.525 C 224 195.116, 224.659 195.963, 226.066 196.180 C 227.947 196.471, 227.725 197.040, 223.593 202.500 C 220.703 206.320, 219.044 209.542, 219.027 211.367 C 219.002 213.988, 218.764 214.175, 216.250 213.556 C 208.099 211.549, 208 211.562, 208 214.661 C 208 217.012, 209.349 218.697, 215.250 223.722 C 219.238 227.118, 229.424 236.894, 237.886 245.448 C 246.348 254.002, 253.886 261, 254.636 261 C 255.559 261, 256 262.285, 256 264.977 C 256 270.383, 258.685 271.983, 269.752 273.175 C 285.488 274.868, 295.286 278.174, 310.918 287.062 C 315.695 289.778, 320.593 292, 321.802 292 C 323.011 292, 324 292.516, 324 293.147 C 324 298.089, 335.863 306.047, 336.079 301.250 C 336.126 300.205, 336.361 300.003, 336.662 300.750 C 336.940 301.438, 338.254 302, 339.583 302 C 341.781 302, 342 302.408, 342 306.500 C 342 310.633, 342.204 311, 344.500 311 C 345.881 311, 347 311.580, 347 312.296 C 347 316.254, 369.608 347, 372.519 347 C 373.404 347, 374 347.939, 374 349.335 C 374 350.619, 376.300 355.457, 379.111 360.085 C 385.826 371.139, 389.500 378.506, 393.618 389.168 C 397.692 399.718, 397.661 399, 394.049 399 C 381.986 399, 374.991 403.833, 375.015 412.151 C 375.033 418.203, 375.646 419.609, 378.500 420.143 C 379.925 420.409, 380.590 421.448, 380.813 423.758 C 381.123 426.959, 384.914 428.567, 386.417 426.135 C 386.711 425.659, 388.687 425.037, 390.809 424.752 C 392.931 424.468, 396.533 423.057, 398.814 421.617 C 401.094 420.178, 403.122 419, 403.320 419 C 403.518 419, 404.243 422.150, 404.931 426 C 405.619 429.850, 406.513 433, 406.918 433 C 407.322 433, 407.455 434.350, 407.213 436 C 406.823 438.662, 407.059 439, 409.314 439 C 411.797 439, 411.842 439.127, 411.288 444.500 C 410.758 449.630, 410.864 450, 412.860 450 C 414.639 450, 415 450.590, 415 453.500 C 415 456.241, 415.402 457, 416.853 457 C 418.474 457, 418.646 457.626, 418.226 462 C 417.771 466.736, 417.871 467, 420.130 467 C 422.342 467, 422.489 467.325, 422.157 471.500 C 421.821 475.720, 421.953 476, 424.279 476 C 426.583 476, 426.790 476.409, 427.184 481.750 C 427.417 484.913, 428.892 490.762, 430.462 494.750 C 433.941 503.587, 435.403 503.927, 444.484 498.010 C 451.070 493.719, 464.507 487.616, 475 484.148 C 492.676 478.307, 520.331 462.563, 531.921 451.743 C 539.275 444.878, 540.226 445.110, 541.413 454.058 C 542.268 460.502, 544.686 463, 550.066 463 C 555.077 463, 558 461.536, 558 459.025 C 558 457.546, 558.838 457.051, 561.750 456.810 C 567.684 456.319, 567.794 448.252, 561.959 441.606 L 558.946 438.175 561.723 436.216 C 563.250 435.138, 566.831 433.082, 569.679 431.647 C 572.528 430.212, 575.142 428.579, 575.488 428.019 C 575.835 427.459, 578.061 427, 580.437 427 C 583.055 427, 585.245 426.410, 586 425.500 C 586.685 424.675, 588.321 424, 589.636 424 C 590.951 424, 592.809 423.585, 593.764 423.077 C 596.949 421.383, 608.399 418.770, 612.392 418.825 C 614.560 418.855, 617.259 418.231, 618.390 417.440 C 619.520 416.648, 621.807 415.986, 623.473 415.968 C 625.138 415.951, 627.337 415.303, 628.359 414.528 C 629.649 413.551, 631.688 413.294, 635.018 413.688 C 640.828 414.377, 647 413.355, 646.999 411.705 C 646.999 410.882, 648.561 410.608, 651.928 410.842 C 656.751 411.176, 656.902 411.100, 658.885 407.342 C 660.459 404.359, 660.921 403.979, 660.956 405.643 C 661.023 408.898, 668.147 410.121, 676.875 408.375 C 682.389 407.272, 681.513 401, 675.845 401 L 671.690 401 673.595 398.890 C 675.211 397.099, 675.549 397.023, 675.823 398.390 C 676.044 399.486, 677.218 400, 679.507 400 C 682.429 400, 682.908 400.358, 683.184 402.750 C 683.689 407.143, 692.175 406.929, 693.122 402.500 L 693.763 399.500 693.882 402.750 C 693.999 405.968, 694.050 406, 699 406 C 701.750 406, 704 405.628, 704 405.173 C 704 404.718, 705.325 404.541, 706.944 404.778 C 709.567 405.163, 709.994 404.844, 710.854 401.855 C 711.385 400.010, 711.860 399.239, 711.910 400.143 C 712.050 402.692, 714.058 403, 730.517 403 C 746.377 403, 749.911 402.355, 753.750 398.759 L 756 396.651 756 401.326 C 756 405.979, 756.015 406, 759.417 406 C 761.296 406, 763.060 405.437, 763.338 404.750 C 763.639 404.003, 763.874 404.205, 763.921 405.250 C 763.978 406.510, 764.840 407, 767 407 C 769.510 407, 770 407.397, 770 409.429 C 770 414.924, 774.888 416.395, 781.515 412.895 C 787.132 409.927, 790 407.031, 790 404.326 C 790 402.350, 790.509 402, 793.383 402 C 796.001 402, 796.938 401.491, 797.524 399.750 C 798.255 397.580, 798.297 397.598, 798.708 400.250 C 799.088 402.707, 799.548 403, 803.031 403 C 807.994 403, 809.435 400.628, 808.754 393.586 C 807.958 385.366, 809.837 383.281, 812.436 389.500 C 813.456 391.941, 814.540 393, 816.020 393 C 818.668 393, 821 395.244, 821 397.791 C 821 399.817, 820.695 399.762, 848.250 402.655 C 854.677 403.329, 856.397 400.762, 851.937 397.150 C 849.620 395.274, 847.934 387, 849.868 387 C 850.560 387, 851 385.054, 851 382 C 851 378.651, 851.415 377, 852.257 377 C 853.134 377, 853.406 378.363, 853.157 381.500 C 852.803 385.943, 852.838 386, 855.899 386 C 858.953 386, 859 385.925, 859 381 C 859 378.250, 858.550 376, 858 376 C 857.450 376, 857 374.875, 857 373.500 C 857 371.533, 857.508 371, 859.383 371 C 861.878 371, 863.784 374.572, 861.666 375.278 C 860.667 375.611, 858.188 396.502, 857.708 408.624 C 857.507 413.716, 859.277 416, 863.422 416 C 867.340 416, 869 414.452, 869 410.800 C 869 408.396, 869.398 408, 871.818 408 C 873.367 408, 877.980 407.111, 882.068 406.024 C 891.986 403.386, 905.262 403.374, 916.187 405.993 C 920.759 407.089, 925.693 407.989, 927.151 407.993 C 929.154 407.998, 930.340 408.917, 932 411.750 C 937.627 421.352, 944.549 429.968, 946.650 429.984 C 953.760 430.038, 952.888 391.567, 945.078 360.642 C 941.771 347.549, 929.190 315.249, 925.526 310.445 C 924.137 308.623, 923 306.023, 923 304.666 C 923 300.772, 914.912 290.832, 897.543 273.382 C 880.770 256.530, 876.315 253.010, 871.750 253.004 C 870.148 253.002, 869 252.452, 869 251.687 C 869 247.514, 859.659 243.041, 858.689 246.750 C 858.355 248.030, 858.201 247.879, 858.116 246.184 C 857.834 240.555, 851 236.740, 851 242.212 C 851 244.273, 850.812 244.210, 848.250 241.296 C 844.324 236.829, 837.103 232, 834.350 232 C 832.570 232, 832 231.447, 832 229.719 C 832 228.103, 831.125 227.108, 829 226.306 C 827.350 225.683, 826 224.460, 826 223.587 C 826 222.432, 825.021 222, 822.406 222 L 818.813 222 822.203 217.250 C 824.068 214.638, 826.585 212.056, 827.797 211.513 C 830.244 210.416, 830.820 206.220, 828.800 204.200 C 826.924 202.324, 820.143 202.762, 817.058 204.959 C 809.415 210.401, 803.014 223, 807.892 223 C 809.060 223, 810.016 223.928, 810.393 225.429 C 811.126 228.349, 819.817 232, 826.038 232 C 828.807 232, 830 232.431, 830 233.430 C 830 234.549, 829.336 234.670, 826.951 233.986 C 825.274 233.505, 820.661 232.841, 816.701 232.510 C 803.140 231.376, 803.348 231.457, 803.811 227.493 C 804.366 222.741, 801.598 222.790, 795.259 227.643 C 785.754 234.919, 731.396 260.089, 709.500 267.353 C 699.932 270.527, 695.249 273.222, 694.029 276.256 C 693.270 278.143, 693.117 277.841, 693.063 274.357 C 693.021 271.613, 692.486 270.017, 691.477 269.630 C 690.187 269.135, 690.263 268.737, 691.977 267.023 C 694.653 264.347, 694.657 257.301, 691.989 249.708 C 689.085 241.446, 688.481 228.637, 690.404 216.074 C 692.623 201.578, 692.551 200, 689.675 200 C 687.544 200, 671.401 216.183, 667.834 221.894 C 666.900 223.390, 666.013 223.562, 662.605 222.910 C 660.347 222.479, 656.454 221.858, 653.953 221.532 C 649.836 220.994, 649.009 220.399, 645.190 215.219 C 633.166 198.913, 619.885 189.951, 621.220 199.043 C 621.561 201.369, 621.333 201.958, 620.251 201.543 C 619.473 201.244, 618.080 201, 617.155 201 C 616.231 201, 615.030 199.988, 614.487 198.750 C 611.072 190.966, 598.341 202.192, 593.436 217.313 C 591.071 224.604, 588.319 228.787, 584.653 230.660 C 582.919 231.546, 581.140 232.885, 580.700 233.635 C 580.260 234.386, 578.798 235, 577.450 235 C 575.939 235, 575 235.575, 575 236.500 C 575 237.391, 574.082 238, 572.741 238 C 571.498 238, 569.919 238.900, 569.232 240 C 568.426 241.292, 566.900 242, 564.926 242 C 560.530 242, 558 243.664, 558 246.554 C 558 248.754, 557.686 248.964, 555.250 248.391 C 544.631 245.891, 518.291 233.427, 505.382 224.793 C 489.697 214.302, 463.219 179.919, 436.061 134.780 C 425.080 116.528, 422.885 113.455, 420.629 113.184 C 418.287 112.902, 418 113.206, 418 115.969 C 418 118.703, 417.776 118.950, 416.105 118.056 C 415.063 117.499, 411.678 116.745, 408.583 116.381 C 403.370 115.768, 403.105 115.615, 404.978 114.303 C 406.272 113.396, 407.012 111.738, 407.033 109.693 L 407.067 106.500 408.944 108.750 C 411.403 111.698, 417.454 111.889, 418.965 109.066 C 420.442 106.306, 420.223 92.426, 418.606 86.354 C 416.023 76.651, 412.192 72.509, 406.412 73.168 C 402.581 73.605, 402.575 79.854, 406.399 88 C 407.819 91.025, 408.985 94.318, 408.990 95.317 C 409.002 97.526, 409.945 97.783, 387 89.314 C 357.727 78.508, 322.836 69.561, 284.151 62.942 C 273.541 61.127, 233.790 60.359, 217.500 61.654" stroke="none" fill="#ffffff" fill-rule="evenodd"/></g>
</svg>
